CrispyCond Black-MinGrade-shadow.ufo
<glyph name="period" format="2">
  <advance width="230"/>
  <unicode hex="002E"/>
  <outline>
    <contour>
      <point x="-68" y="132" type="line"/>
      <point x="-103" y="67" type="line"/>
      <point x="-103" y="-152" type="line"/>
      <point x="171" y="-152" type="line"/>
      <point x="322" y="-1" type="line"/>
      <point x="357" y="63" type="line"/>
      <point x="357" y="283" type="line"/>
      <point x="83" y="283" type="line"/>
    </contour>
    <contour>
      <point x="-99" y="-148" type="line"/>
      <point x="-99" y="65" type="line"/>
      <point x="-64" y="130" type="line"/>
      <point x="85" y="279" type="line"/>
      <point x="353" y="279" type="line"/>
      <point x="353" y="65" type="line"/>
      <point x="318" y="1" type="line"/>
      <point x="169" y="-148" type="line"/>
    </contour>
  </outline>
</glyph>
<glyph name="zero" format="2">
  <advance width="653"/>
  <unicode hex="0030"/>
  <outline>
    <contour>
      <point x="788" y="1602" type="line"/>
      <point x="37" y="1602" type="line"/>
      <point x="-114" y="1451" type="line"/>
      <point x="-114" y="-152" type="line"/>
      <point x="637" y="-152" type="line"/>
      <point x="788" y="-1" type="line"/>
    </contour>
    <contour>
      <point x="-110" y="-148" type="line"/>
      <point x="-110" y="1449" type="line"/>
      <point x="39" y="1598" type="line"/>
      <point x="784" y="1598" type="line"/>
      <point x="784" y="1" type="line"/>
      <point x="635" y="-148" type="line"/>
    </contour>
  </outline>
</glyph>
<glyph name="two" format="2">
  <advance width="611"/>
  <unicode hex="0032"/>
  <outline>
    <contour>
      <point x="763" y="428" type="line"/>
      <point x="457" y="428" type="line"/>
      <point x="333" y="304" type="line"/>
      <point x="333" y="514" type="line"/>
      <point x="606" y="514" type="line"/>
      <point x="757" y="665" type="line"/>
      <point x="757" y="1602" type="line"/>
      <point x="24" y="1602" type="line"/>
      <point x="-127" y="1451" type="line"/>
      <point x="-127" y="937" type="line"/>
      <point x="179" y="937" type="line"/>
      <point x="300" y="1058" type="line"/>
      <point x="300" y="913" type="line"/>
      <point x="19" y="913" type="line"/>
      <point x="-132" y="762" type="line"/>
      <point x="-132" y="-152" type="line"/>
      <point x="612" y="-152" type="line"/>
      <point x="763" y="-1" type="line"/>
    </contour>
    <contour>
      <point x="304" y="909" type="line"/>
      <point x="304" y="1068" type="line"/>
      <point x="177" y="941" type="line"/>
      <point x="-123" y="941" type="line"/>
      <point x="-123" y="1449" type="line"/>
      <point x="26" y="1598" type="line"/>
      <point x="753" y="1598" type="line"/>
      <point x="753" y="667" type="line"/>
      <point x="604" y="518" type="line"/>
      <point x="329" y="518" type="line"/>
      <point x="329" y="294" type="line"/>
      <point x="459" y="424" type="line"/>
      <point x="759" y="424" type="line"/>
      <point x="759" y="1" type="line"/>
      <point x="610" y="-148" type="line"/>
      <point x="-128" y="-148" type="line"/>
      <point x="-128" y="760" type="line"/>
      <point x="21" y="909" type="line"/>
    </contour>
  </outline>
</glyph>
<glyph name="six" format="2">
  <advance width="618"/>
  <unicode hex="0036"/>
  <outline>
    <contour>
      <point x="620" y="-152" type="line"/>
      <point x="771" y="-1" type="line"/>
      <point x="771" y="899" type="line"/>
      <point x="331" y="899" type="line"/>
      <point x="331" y="925" type="line"/>
      <point x="619" y="925" type="line"/>
      <point x="770" y="1076" type="line"/>
      <point x="770" y="1602" type="line"/>
      <point x="116" y="1602" type="line"/>
      <point x="-35" y="1451" type="line"/>
      <point x="-125" y="1091" type="line"/>
      <point x="-125" y="-152" type="line"/>
    </contour>
    <contour>
      <point x="327" y="929" type="line"/>
      <point x="327" y="895" type="line"/>
      <point x="767" y="895" type="line"/>
      <point x="767" y="1" type="line"/>
      <point x="618" y="-148" type="line"/>
      <point x="-121" y="-148" type="line"/>
      <point x="-121" y="1091" type="line"/>
      <point x="-31" y="1449" type="line"/>
      <point x="118" y="1598" type="line"/>
      <point x="766" y="1598" type="line"/>
      <point x="766" y="1078" type="line"/>
      <point x="617" y="929" type="line"/>
    </contour>
  </outline>
</glyph>
<glyph name="seven" format="2">
  <advance width="614"/>
  <unicode hex="0037"/>
  <outline>
    <contour>
      <point x="383" y="-152" type="line"/>
      <point x="534" y="-1" type="line"/>
      <point x="766" y="1201" type="line"/>
      <point x="766" y="1602" type="line"/>
      <point x="19" y="1602" type="line"/>
      <point x="-132" y="1451" type="line"/>
      <point x="-132" y="916" type="line"/>
      <point x="174" y="916" type="line"/>
      <point x="298" y="1040" type="line"/>
      <point x="77" y="-152" type="line"/>
    </contour>
    <contour>
      <point x="304" y="1052" type="line"/>
      <point x="172" y="920" type="line"/>
      <point x="-128" y="920" type="line"/>
      <point x="-128" y="1449" type="line"/>
      <point x="21" y="1598" type="line"/>
      <point x="762" y="1598" type="line"/>
      <point x="762" y="1201" type="line"/>
      <point x="530" y="1" type="line"/>
      <point x="381" y="-148" type="line"/>
      <point x="81" y="-148" type="line"/>
    </contour>
  </outline>
</glyph>
<glyph name="A" format="2">
  <advance width="637"/>
  <unicode hex="0041"/>
  <outline>
    <contour>
      <point x="619" y="-152" type="line"/>
      <point x="770" y="-1" type="line"/>
      <point x="770" y="1602" type="line"/>
      <point x="130" y="1602" type="line"/>
      <point x="-21" y="1451" type="line"/>
      <point x="-126" y="1037" type="line"/>
      <point x="-126" y="-152" type="line"/>
      <point x="179" y="-152" type="line"/>
      <point x="313" y="-18" type="line"/>
      <point x="313" y="-152" type="line"/>
    </contour>
    <contour>
      <point x="317" y="-8" type="line"/>
      <point x="177" y="-148" type="line"/>
      <point x="-122" y="-148" type="line"/>
      <point x="-122" y="1037" type="line"/>
      <point x="-17" y="1449" type="line"/>
      <point x="132" y="1598" type="line"/>
      <point x="766" y="1598" type="line"/>
      <point x="766" y="1" type="line"/>
      <point x="617" y="-148" type="line"/>
      <point x="317" y="-148" type="line"/>
    </contour>
  </outline>
</glyph>
<glyph name="B" format="2">
  <advance width="646"/>
  <unicode hex="0042"/>
  <outline>
    <contour>
      <point x="552" y="-152" type="line"/>
      <point x="703" y="-1" type="line"/>
      <point x="793" y="355" type="line"/>
      <point x="793" y="922" type="line"/>
      <point x="732" y="922" type="line"/>
      <point x="732" y="1602" type="line"/>
      <point x="38" y="1602" type="line"/>
      <point x="-113" y="1451" type="line"/>
      <point x="-113" y="-152" type="line"/>
    </contour>
    <contour>
      <point x="728" y="918" type="line"/>
      <point x="789" y="918" type="line"/>
      <point x="789" y="355" type="line"/>
      <point x="699" y="1" type="line"/>
      <point x="550" y="-148" type="line"/>
      <point x="-109" y="-148" type="line"/>
      <point x="-109" y="1449" type="line"/>
      <point x="40" y="1598" type="line"/>
      <point x="728" y="1598" type="line"/>
    </contour>
  </outline>
</glyph>
<glyph name="C" format="2">
  <advance width="622"/>
  <unicode hex="0043"/>
  <outline>
    <contour>
      <point x="772" y="518" type="line"/>
      <point x="466" y="518" type="line"/>
      <point x="333" y="385" type="line"/>
      <point x="333" y="888" type="line"/>
      <point x="622" y="888" type="line"/>
      <point x="773" y="1039" type="line"/>
      <point x="773" y="1602" type="line"/>
      <point x="117" y="1602" type="line"/>
      <point x="-34" y="1451" type="line"/>
      <point x="-123" y="1090" type="line"/>
      <point x="-123" y="-152" type="line"/>
      <point x="621" y="-152" type="line"/>
      <point x="772" y="-1" type="line"/>
    </contour>
    <contour>
      <point x="329" y="892" type="line"/>
      <point x="329" y="375" type="line"/>
      <point x="468" y="514" type="line"/>
      <point x="768" y="514" type="line"/>
      <point x="768" y="1" type="line"/>
      <point x="619" y="-148" type="line"/>
      <point x="-119" y="-148" type="line"/>
      <point x="-119" y="1090" type="line"/>
      <point x="-30" y="1449" type="line"/>
      <point x="119" y="1598" type="line"/>
      <point x="769" y="1598" type="line"/>
      <point x="769" y="1041" type="line"/>
      <point x="620" y="892" type="line"/>
    </contour>
  </outline>
</glyph>
<glyph name="E" format="2">
  <advance width="559"/>
  <unicode hex="0045"/>
  <outline>
    <contour>
      <point x="714" y="488" type="line"/>
      <point x="449" y="488" type="line"/>
      <point x="343" y="382" type="line"/>
      <point x="343" y="523" type="line"/>
      <point x="473" y="523" type="line"/>
      <point x="624" y="674" type="line"/>
      <point x="624" y="924" type="line"/>
      <point x="564" y="924" type="line"/>
      <point x="713" y="1073" type="line"/>
      <point x="713" y="1602" type="line"/>
      <point x="37" y="1602" type="line"/>
      <point x="-114" y="1451" type="line"/>
      <point x="-114" y="-152" type="line"/>
      <point x="563" y="-152" type="line"/>
      <point x="714" y="-1" type="line"/>
    </contour>
    <contour>
      <point x="339" y="926" type="line"/>
      <point x="339" y="920" type="line"/>
      <point x="620" y="920" type="line"/>
      <point x="620" y="676" type="line"/>
      <point x="471" y="527" type="line"/>
      <point x="339" y="527" type="line"/>
      <point x="339" y="372" type="line"/>
      <point x="451" y="484" type="line"/>
      <point x="710" y="484" type="line"/>
      <point x="710" y="1" type="line"/>
      <point x="561" y="-148" type="line"/>
      <point x="-110" y="-148" type="line"/>
      <point x="-110" y="1449" type="line"/>
      <point x="39" y="1598" type="line"/>
      <point x="709" y="1598" type="line"/>
      <point x="709" y="1075" type="line"/>
      <point x="560" y="926" type="line"/>
    </contour>
  </outline>
</glyph>
<glyph name="J" format="2">
  <advance width="613"/>
  <unicode hex="004A"/>
  <outline>
    <contour>
      <point x="742" y="-1" type="line"/>
      <point x="742" y="1602" type="line"/>
      <point x="436" y="1602" type="line"/>
      <point x="285" y="1451" type="line"/>
      <point x="285" y="727" type="line"/>
      <point x="22" y="727" type="line"/>
      <point x="-129" y="576" type="line"/>
      <point x="-129" y="-152" type="line"/>
      <point x="591" y="-152" type="line"/>
    </contour>
    <contour>
      <point x="289" y="723" type="line"/>
      <point x="289" y="1449" type="line"/>
      <point x="438" y="1598" type="line"/>
      <point x="738" y="1598" type="line"/>
      <point x="738" y="1" type="line"/>
      <point x="589" y="-148" type="line"/>
      <point x="-125" y="-148" type="line"/>
      <point x="-125" y="574" type="line"/>
      <point x="24" y="723" type="line"/>
    </contour>
  </outline>
</glyph>
<glyph name="K" format="2">
  <advance width="639"/>
  <unicode hex="004B"/>
  <outline>
    <contour>
      <point x="631" y="-152" type="line"/>
      <point x="782" y="-1" type="line"/>
      <point x="782" y="865" type="line"/>
      <point x="691" y="865" type="line"/>
      <point x="779" y="1602" type="line"/>
      <point x="476" y="1602" type="line"/>
      <point x="345" y="1471" type="line"/>
      <point x="345" y="1602" type="line"/>
      <point x="39" y="1602" type="line"/>
      <point x="-112" y="1451" type="line"/>
      <point x="-112" y="-152" type="line"/>
      <point x="194" y="-152" type="line"/>
      <point x="326" y="-20" type="line"/>
      <point x="326" y="-152" type="line"/>
    </contour>
    <contour>
      <point x="341" y="1461" type="line"/>
      <point x="478" y="1598" type="line"/>
      <point x="775" y="1598" type="line"/>
      <point x="687" y="861" type="line"/>
      <point x="778" y="861" type="line"/>
      <point x="778" y="1" type="line"/>
      <point x="629" y="-148" type="line"/>
      <point x="330" y="-148" type="line"/>
      <point x="330" y="-10" type="line"/>
      <point x="192" y="-148" type="line"/>
      <point x="-108" y="-148" type="line"/>
      <point x="-108" y="1449" type="line"/>
      <point x="41" y="1598" type="line"/>
      <point x="341" y="1598" type="line"/>
    </contour>
  </outline>
</glyph>
<glyph name="N" format="2">
  <advance width="733"/>
  <unicode hex="004E"/>
  <outline>
    <contour>
      <point x="710" y="-152" type="line"/>
      <point x="861" y="-1" type="line"/>
      <point x="861" y="1602" type="line"/>
      <point x="586" y="1602" type="line"/>
      <point x="501" y="1517" type="line"/>
      <point x="495" y="1602" type="line"/>
      <point x="43" y="1602" type="line"/>
      <point x="-108" y="1451" type="line"/>
      <point x="-108" y="-152" type="line"/>
      <point x="167" y="-152" type="line"/>
      <point x="254" y="-65" type="line"/>
      <point x="260" y="-152" type="line"/>
    </contour>
    <contour>
      <point x="258" y="-55" type="line"/>
      <point x="165" y="-148" type="line"/>
      <point x="-104" y="-148" type="line"/>
      <point x="-104" y="1449" type="line"/>
      <point x="45" y="1598" type="line"/>
      <point x="491" y="1598" type="line"/>
      <point x="497" y="1507" type="line"/>
      <point x="588" y="1598" type="line"/>
      <point x="857" y="1598" type="line"/>
      <point x="857" y="1" type="line"/>
      <point x="708" y="-148" type="line"/>
      <point x="264" y="-148" type="line"/>
    </contour>
  </outline>
</glyph>
<glyph name="P" format="2">
  <advance width="631"/>
  <unicode hex="0050"/>
  <outline>
    <contour>
      <point x="195" y="-152" type="line"/>
      <point x="346" y="-1" type="line"/>
      <point x="346" y="450" type="line"/>
      <point x="632" y="450" type="line"/>
      <point x="783" y="601" type="line"/>
      <point x="783" y="1602" type="line"/>
      <point x="40" y="1602" type="line"/>
      <point x="-111" y="1451" type="line"/>
      <point x="-111" y="-152" type="line"/>
    </contour>
    <contour>
      <point x="342" y="454" type="line"/>
      <point x="342" y="1" type="line"/>
      <point x="193" y="-148" type="line"/>
      <point x="-107" y="-148" type="line"/>
      <point x="-107" y="1449" type="line"/>
      <point x="42" y="1598" type="line"/>
      <point x="779" y="1598" type="line"/>
      <point x="779" y="603" type="line"/>
      <point x="630" y="454" type="line"/>
    </contour>
  </outline>
</glyph>
<glyph name="X" format="2">
  <advance width="636"/>
  <unicode hex="0058"/>
  <outline>
    <contour>
      <point x="630" y="-152" type="line"/>
      <point x="781" y="-1" type="line"/>
      <point x="781" y="682" type="line"/>
      <point x="729" y="751" type="line"/>
      <point x="777" y="799" type="line"/>
      <point x="777" y="1602" type="line"/>
      <point x="471" y="1602" type="line"/>
      <point x="335" y="1466" type="line"/>
      <point x="335" y="1602" type="line"/>
      <point x="30" y="1602" type="line"/>
      <point x="-121" y="1451" type="line"/>
      <point x="-121" y="763" type="line"/>
      <point x="-74" y="701" type="line"/>
      <point x="-125" y="650" type="line"/>
      <point x="-125" y="-152" type="line"/>
      <point x="180" y="-152" type="line"/>
      <point x="324" y="-8" type="line"/>
      <point x="324" y="-152" type="line"/>
    </contour>
    <contour>
      <point x="723" y="751" type="line"/>
      <point x="777" y="680" type="line"/>
      <point x="777" y="1" type="line"/>
      <point x="628" y="-148" type="line"/>
      <point x="328" y="-148" type="line"/>
      <point x="328" y="2" type="line"/>
      <point x="178" y="-148" type="line"/>
      <point x="-121" y="-148" type="line"/>
      <point x="-121" y="648" type="line"/>
      <point x="-68" y="701" type="line"/>
      <point x="-117" y="765" type="line"/>
      <point x="-117" y="1449" type="line"/>
      <point x="32" y="1598" type="line"/>
      <point x="331" y="1598" type="line"/>
      <point x="331" y="1456" type="line"/>
      <point x="473" y="1598" type="line"/>
      <point x="773" y="1598" type="line"/>
      <point x="773" y="801" type="line"/>
    </contour>
  </outline>
</glyph>
<glyph name="Z" format="2">
  <advance width="613"/>
  <unicode hex="005A"/>
  <outline>
    <contour>
      <point x="-131" y="279" type="line"/>
      <point x="-131" y="-152" type="line"/>
      <point x="605" y="-152" type="line"/>
      <point x="756" y="-1" type="line"/>
      <point x="756" y="495" type="line"/>
      <point x="450" y="495" type="line"/>
      <point x="326" y="371" type="line"/>
      <point x="326" y="422" type="line"/>
      <point x="764" y="1279" type="line"/>
      <point x="764" y="1602" type="line"/>
      <point x="33" y="1602" type="line"/>
      <point x="-118" y="1451" type="line"/>
      <point x="-118" y="991" type="line"/>
      <point x="158" y="991" type="line"/>
      <point x="307" y="1140" type="line"/>
      <point x="307" y="1133" type="line"/>
    </contour>
    <contour>
      <point x="311" y="1133" type="line"/>
      <point x="311" y="1206" type="line"/>
      <point x="305" y="1206" type="line"/>
      <point x="305" y="1144" type="line"/>
      <point x="156" y="995" type="line"/>
      <point x="-114" y="995" type="line"/>
      <point x="-114" y="1449" type="line"/>
      <point x="35" y="1598" type="line"/>
      <point x="760" y="1598" type="line"/>
      <point x="760" y="1279" type="line"/>
      <point x="322" y="422" type="line"/>
      <point x="322" y="361" type="line"/>
      <point x="452" y="491" type="line"/>
      <point x="752" y="491" type="line"/>
      <point x="752" y="1" type="line"/>
      <point x="603" y="-148" type="line"/>
      <point x="-127" y="-148" type="line"/>
      <point x="-127" y="279" type="line"/>
    </contour>
  </outline>
</glyph>
<glyph name="C.wide" format="2">
  <advance width="675"/>
  <outline>
    <contour>
      <point x="819" y="1602" type="line"/>
      <point x="141" y="1602" type="line"/>
      <point x="-10" y="1451" type="line"/>
      <point x="-101" y="971" type="line"/>
      <point x="-101" y="-152" type="line"/>
      <point x="669" y="-152" type="line"/>
      <point x="820" y="-1" type="line"/>
      <point x="820" y="249" type="line"/>
      <point x="356" y="249" type="line"/>
      <point x="356" y="1102" type="line"/>
      <point x="375" y="1201" type="line"/>
      <point x="668" y="1201" type="line"/>
      <point x="819" y="1352" type="line"/>
    </contour>
    <contour>
      <point x="352" y="1102" type="line"/>
      <point x="352" y="245" type="line"/>
      <point x="816" y="245" type="line"/>
      <point x="816" y="1" type="line"/>
      <point x="667" y="-148" type="line"/>
      <point x="-97" y="-148" type="line"/>
      <point x="-97" y="971" type="line"/>
      <point x="-6" y="1449" type="line"/>
      <point x="143" y="1598" type="line"/>
      <point x="815" y="1598" type="line"/>
      <point x="815" y="1354" type="line"/>
      <point x="666" y="1205" type="line"/>
      <point x="371" y="1205" type="line"/>
    </contour>
  </outline>
</glyph>
<glyph name="E.wide" format="2">
  <advance width="461"/>
  <outline>
    <contour>
      <point x="622" y="-1" type="line"/>
      <point x="622" y="238" type="line"/>
      <point x="337" y="238" type="line"/>
      <point x="337" y="535" type="line"/>
      <point x="435" y="535" type="line"/>
      <point x="586" y="686" type="line"/>
      <point x="586" y="915" type="line"/>
      <point x="337" y="915" type="line"/>
      <point x="337" y="1217" type="line"/>
      <point x="470" y="1217" type="line"/>
      <point x="621" y="1368" type="line"/>
      <point x="621" y="1602" type="line"/>
      <point x="31" y="1602" type="line"/>
      <point x="-120" y="1451" type="line"/>
      <point x="-120" y="-152" type="line"/>
      <point x="471" y="-152" type="line"/>
    </contour>
    <contour>
      <point x="333" y="539" type="line"/>
      <point x="333" y="234" type="line"/>
      <point x="618" y="234" type="line"/>
      <point x="618" y="1" type="line"/>
      <point x="469" y="-148" type="line"/>
      <point x="-116" y="-148" type="line"/>
      <point x="-116" y="1449" type="line"/>
      <point x="33" y="1598" type="line"/>
      <point x="617" y="1598" type="line"/>
      <point x="617" y="1370" type="line"/>
      <point x="468" y="1221" type="line"/>
      <point x="333" y="1221" type="line"/>
      <point x="333" y="911" type="line"/>
      <point x="582" y="911" type="line"/>
      <point x="582" y="688" type="line"/>
      <point x="433" y="539" type="line"/>
    </contour>
  </outline>
</glyph>
<glyph name="M.narrow" format="2">
  <advance width="1041"/>
  <outline>
    <contour>
      <point x="1031" y="-152" type="line"/>
      <point x="1182" y="-1" type="line"/>
      <point x="1182" y="1602" type="line"/>
      <point x="134" y="1602" type="line"/>
      <point x="-17" y="1451" type="line"/>
      <point x="-107" y="1089" type="line"/>
      <point x="-107" y="-152" type="line"/>
      <point x="199" y="-152" type="line"/>
      <point x="309" y="-42" type="line"/>
      <point x="309" y="-151" type="line"/>
      <point x="614" y="-151" type="line"/>
      <point x="725" y="-40" type="line"/>
      <point x="725" y="-152" type="line"/>
    </contour>
    <contour>
      <point x="729" y="-30" type="line"/>
      <point x="612" y="-147" type="line"/>
      <point x="313" y="-147" type="line"/>
      <point x="313" y="-32" type="line"/>
      <point x="197" y="-148" type="line"/>
      <point x="-103" y="-148" type="line"/>
      <point x="-103" y="1089" type="line"/>
      <point x="-13" y="1449" type="line"/>
      <point x="136" y="1598" type="line"/>
      <point x="1178" y="1598" type="line"/>
      <point x="1178" y="1" type="line"/>
      <point x="1029" y="-148" type="line"/>
      <point x="729" y="-148" type="line"/>
    </contour>
  </outline>
</glyph>
<glyph name="S.wide" format="2">
  <advance width="610"/>
  <outline>
    <contour>
      <point x="673" y="-1" type="line"/>
      <point x="761" y="347" type="line"/>
      <point x="761" y="931" type="line"/>
      <point x="324" y="931" type="line"/>
      <point x="324" y="1215" type="line"/>
      <point x="610" y="1215" type="line"/>
      <point x="761" y="1366" type="line"/>
      <point x="761" y="1602" type="line"/>
      <point x="115" y="1602" type="line"/>
      <point x="-36" y="1451" type="line"/>
      <point x="-129" y="1081" type="line"/>
      <point x="-129" y="517" type="line"/>
      <point x="304" y="517" type="line"/>
      <point x="304" y="240" type="line"/>
      <point x="22" y="240" type="line"/>
      <point x="-129" y="89" type="line"/>
      <point x="-129" y="-152" type="line"/>
      <point x="522" y="-152" type="line"/>
    </contour>
    <contour>
      <point x="308" y="236" type="line"/>
      <point x="308" y="521" type="line"/>
      <point x="-125" y="521" type="line"/>
      <point x="-125" y="1081" type="line"/>
      <point x="-32" y="1449" type="line"/>
      <point x="117" y="1598" type="line"/>
      <point x="757" y="1598" type="line"/>
      <point x="757" y="1368" type="line"/>
      <point x="608" y="1219" type="line"/>
      <point x="320" y="1219" type="line"/>
      <point x="320" y="927" type="line"/>
      <point x="757" y="927" type="line"/>
      <point x="757" y="347" type="line"/>
      <point x="669" y="1" type="line"/>
      <point x="520" y="-148" type="line"/>
      <point x="-125" y="-148" type="line"/>
      <point x="-125" y="87" type="line"/>
      <point x="24" y="236" type="line"/>
    </contour>
  </outline>
</glyph>
<glyph name="U.alt" format="2">
  <advance width="672"/>
  <outline>
    <contour>
      <point x="633" y="-152" type="line"/>
      <point x="784" y="-1" type="line"/>
      <point x="784" y="1602" type="line"/>
      <point x="478" y="1602" type="line"/>
      <point x="344" y="1468" type="line"/>
      <point x="344" y="1602" type="line"/>
      <point x="38" y="1602" type="line"/>
      <point x="-113" y="1451" type="line"/>
      <point x="-113" y="-152" type="line"/>
    </contour>
    <contour>
      <point x="340" y="1458" type="line"/>
      <point x="480" y="1598" type="line"/>
      <point x="780" y="1598" type="line"/>
      <point x="780" y="1" type="line"/>
      <point x="631" y="-148" type="line"/>
      <point x="-109" y="-148" type="line"/>
      <point x="-109" y="1449" type="line"/>
      <point x="40" y="1598" type="line"/>
      <point x="340" y="1598" type="line"/>
    </contour>
  </outline>
</glyph>
<glyph name="Y.wide" format="2">
  <advance width="654"/>
  <outline>
    <contour>
      <point x="787" y="-1" type="line"/>
      <point x="787" y="1602" type="line"/>
      <point x="482" y="1602" type="line"/>
      <point x="331" y="1451" type="line"/>
      <point x="331" y="926" type="line"/>
      <point x="327" y="926" type="line"/>
      <point x="327" y="1602" type="line"/>
      <point x="21" y="1602" type="line"/>
      <point x="-130" y="1451" type="line"/>
      <point x="-130" y="525" type="line"/>
      <point x="331" y="525" type="line"/>
      <point x="331" y="248" type="line"/>
      <point x="35" y="248" type="line"/>
      <point x="-116" y="97" type="line"/>
      <point x="-116" y="-152" type="line"/>
      <point x="636" y="-152" type="line"/>
    </contour>
    <contour>
      <point x="335" y="244" type="line"/>
      <point x="335" y="529" type="line"/>
      <point x="-126" y="529" type="line"/>
      <point x="-126" y="1449" type="line"/>
      <point x="23" y="1598" type="line"/>
      <point x="323" y="1598" type="line"/>
      <point x="323" y="922" type="line"/>
      <point x="335" y="922" type="line"/>
      <point x="335" y="1449" type="line"/>
      <point x="484" y="1598" type="line"/>
      <point x="783" y="1598" type="line"/>
      <point x="783" y="1" type="line"/>
      <point x="634" y="-148" type="line"/>
      <point x="-112" y="-148" type="line"/>
      <point x="-112" y="95" type="line"/>
      <point x="37" y="244" type="line"/>
    </contour>
  </outline>
</glyph>
<glyph name="nine.wide" format="2">
  <advance width="707"/>
  <outline>
    <contour>
      <point x="826" y="-1" type="line"/>
      <point x="826" y="1602" type="line"/>
      <point x="51" y="1602" type="line"/>
      <point x="-100" y="1451" type="line"/>
      <point x="-100" y="525" type="line"/>
      <point x="370" y="525" type="line"/>
      <point x="370" y="248" type="line"/>
      <point x="51" y="248" type="line"/>
      <point x="-100" y="97" type="line"/>
      <point x="-100" y="-152" type="line"/>
      <point x="675" y="-152" type="line"/>
    </contour>
    <contour>
      <point x="374" y="244" type="line"/>
      <point x="374" y="529" type="line"/>
      <point x="-96" y="529" type="line"/>
      <point x="-96" y="1449" type="line"/>
      <point x="53" y="1598" type="line"/>
      <point x="822" y="1598" type="line"/>
      <point x="822" y="1" type="line"/>
      <point x="673" y="-148" type="line"/>
      <point x="-96" y="-148" type="line"/>
      <point x="-96" y="95" type="line"/>
      <point x="53" y="244" type="line"/>
    </contour>
    <contour>
      <point x="374" y="921" type="line"/>
      <point x="374" y="1206" type="line"/>
      <point x="352" y="1206" type="line"/>
      <point x="352" y="921" type="line"/>
    </contour>
    <contour>
      <point x="356" y="925" type="line"/>
      <point x="356" y="1202" type="line"/>
      <point x="370" y="1202" type="line"/>
      <point x="370" y="925" type="line"/>
    </contour>
  </outline>
</glyph>
<glyph name="seven.alt" format="2">
  <advance width="642"/>
  <outline>
    <contour>
      <point x="622" y="-152" type="line"/>
      <point x="776" y="2" type="line"/>
      <point x="623" y="2" type="line"/>
      <point x="623" y="1452" type="line"/>
      <point x="39" y="1452" type="line"/>
      <point x="39" y="1605" type="line"/>
      <point x="-115" y="1451" type="line"/>
      <point x="-115" y="724" type="line"/>
      <point x="190" y="724" type="line"/>
      <point x="316" y="850" type="line"/>
      <point x="316" y="-152" type="line"/>
    </contour>
    <contour>
      <point x="320" y="860" type="line"/>
      <point x="188" y="728" type="line"/>
      <point x="-111" y="728" type="line"/>
      <point x="-111" y="1449" type="line"/>
      <point x="35" y="1595" type="line"/>
      <point x="35" y="1448" type="line"/>
      <point x="619" y="1448" type="line"/>
      <point x="619" y="-2" type="line"/>
      <point x="766" y="-2" type="line"/>
      <point x="620" y="-148" type="line"/>
      <point x="320" y="-148" type="line"/>
    </contour>
    <contour>
      <point x="187" y="874" type="line"/>
      <point x="320" y="874" type="line"/>
      <point x="320" y="1205" type="line"/>
      <point x="187" y="1205" type="line"/>
    </contour>
    <contour>
      <point x="191" y="878" type="line"/>
      <point x="191" y="1201" type="line"/>
      <point x="316" y="1201" type="line"/>
      <point x="316" y="878" type="line"/>
    </contour>
  </outline>
</glyph>
